<mxfile host="drawio-plugin" modified="2023-04-21T16:26:10.973Z" agent="5.0 (Macintosh; Intel Mac OS X 10_15_7) AppleWebKit/537.36 (KHTML, like Gecko) Chrome/104.0.5112.102 Safari/537.36" etag="Ijo8qaAdKX8vqLAwJJ1S" version="20.5.3" type="embed"><diagram name="第 1 页" id="McIFmjKq9pFdLkjuJxYr"><mxGraphModel dx="1552" dy="810" grid="0" gridSize="10" guides="1" tooltips="1" connect="1" arrows="1" fold="1" page="1" pageScale="1" pageWidth="827" pageHeight="1169" math="0" shadow="0"><root><mxCell id="0"/><mxCell id="1" parent="0"/><mxCell id="rC-vLd5PVRkUmveDL2ru-31" value="" style="rounded=0;whiteSpace=wrap;html=1;fillColor=none;" parent="1" vertex="1"><mxGeometry x="510" y="370" width="283" height="336" as="geometry"/></mxCell><mxCell id="rC-vLd5PVRkUmveDL2ru-28" style="edgeStyle=orthogonalEdgeStyle;rounded=0;orthogonalLoop=1;jettySize=auto;html=1;exitX=1;exitY=0.5;exitDx=0;exitDy=0;endArrow=none;endFill=0;" parent="1" source="rC-vLd5PVRkUmveDL2ru-5" target="rC-vLd5PVRkUmveDL2ru-16" edge="1"><mxGeometry relative="1" as="geometry"/></mxCell><mxCell id="rC-vLd5PVRkUmveDL2ru-5" value="" style="image;html=1;image=img/lib/clip_art/networking/Router_Icon_128x128.png" parent="1" vertex="1"><mxGeometry x="339" y="92" width="80" height="80" as="geometry"/></mxCell><mxCell id="rC-vLd5PVRkUmveDL2ru-11" value="" style="image;html=1;image=img/lib/clip_art/computers/Laptop_128x128.png" parent="1" vertex="1"><mxGeometry x="680" y="460" width="80" height="80" as="geometry"/></mxCell><mxCell id="rC-vLd5PVRkUmveDL2ru-12" value="" style="image;html=1;image=img/lib/clip_art/computers/Monitor_128x128.png" parent="1" vertex="1"><mxGeometry x="510" y="545" width="80" height="80" as="geometry"/></mxCell><mxCell id="rC-vLd5PVRkUmveDL2ru-18" value="" style="edgeStyle=orthogonalEdgeStyle;rounded=0;orthogonalLoop=1;jettySize=auto;html=1;endArrow=none;endFill=0;" parent="1" source="rC-vLd5PVRkUmveDL2ru-16" target="rC-vLd5PVRkUmveDL2ru-12" edge="1"><mxGeometry relative="1" as="geometry"/></mxCell><mxCell id="rC-vLd5PVRkUmveDL2ru-19" value="" style="edgeStyle=orthogonalEdgeStyle;rounded=0;orthogonalLoop=1;jettySize=auto;html=1;endArrow=none;endFill=0;" parent="1" source="rC-vLd5PVRkUmveDL2ru-16" target="rC-vLd5PVRkUmveDL2ru-11" edge="1"><mxGeometry relative="1" as="geometry"/></mxCell><mxCell id="rC-vLd5PVRkUmveDL2ru-16" value="" style="image;html=1;image=img/lib/clip_art/networking/Switch_128x128.png" parent="1" vertex="1"><mxGeometry x="540" y="410" width="80" height="80" as="geometry"/></mxCell><mxCell id="rC-vLd5PVRkUmveDL2ru-20" value="Ryu controller" style="text;html=1;align=center;verticalAlign=middle;resizable=0;points=[];autosize=1;strokeColor=none;fillColor=none;" parent="1" vertex="1"><mxGeometry x="336" y="172" width="92" height="26" as="geometry"/></mxCell><mxCell id="rC-vLd5PVRkUmveDL2ru-29" value="Mininet&amp;nbsp;" style="text;html=1;align=center;verticalAlign=middle;resizable=0;points=[];autosize=1;strokeColor=none;fillColor=none;" parent="1" vertex="1"><mxGeometry x="732" y="670" width="60" height="26" as="geometry"/></mxCell></root></mxGraphModel></diagram></mxfile>